<svg width="70" height="60" viewBox="0 0 70 60" fill="none" xmlns="http://www.w3.org/2000/svg">
<g style="mix-blend-mode:overlay">
<path opacity="0.4" d="M54.1634 64.1667H40.8342C34.155 64.1667 30.83 60.8417 30.83 54.1625V33.3375C30.83 26.6583 34.155 23.3333 40.8342 23.3333H54.1634C60.8425 23.3333 64.1675 26.6583 64.1675 33.3375V54.1625C64.1675 60.8417 60.8425 64.1667 54.1634 64.1667Z" fill="currentColor"/>
<path d="M39.1708 15.8375V19.7458C31.5292 20.3583 27.1833 25.2583 27.1833 33.3375V46.6667H15.8375C9.15834 46.6667 5.83334 43.3417 5.83334 36.6625V15.8375C5.83334 9.15834 9.15834 5.83334 15.8375 5.83334H29.1667C35.8458 5.83334 39.1708 9.15834 39.1708 15.8375Z" fill="currentColor"/>
<path d="M52.8765 41.5657H50.3099V38.9991C50.3099 37.8032 49.3182 36.8116 48.1224 36.8116C46.9265 36.8116 45.9349 37.8032 45.9349 38.9991V41.5657H43.3682C42.1724 41.5657 41.1807 42.5574 41.1807 43.7532C41.1807 44.9491 42.1724 45.9407 43.3682 45.9407H45.9349V48.5074C45.9349 49.7032 46.9265 50.6949 48.1224 50.6949C49.3182 50.6949 50.3099 49.7032 50.3099 48.5074V45.9407H52.8765C54.0724 45.9407 55.064 44.9491 55.064 43.7532C55.064 42.5574 54.0724 41.5657 52.8765 41.5657Z" fill="currentColor"/>
</g>
</svg>
