<svg width="25" height="24" viewBox="0 0 25 24" xmlns="http://www.w3.org/2000/svg">
	<path opacity="0.4"
		d="M21.5409 7.19L12.5009 12.42L3.46094 7.19C3.86094 6.45 4.44094 5.8 5.09094 5.44L10.4309 2.48C11.5709 1.84 13.4309 1.84 14.5709 2.48L19.9109 5.44C20.5609 5.8 21.1409 6.45 21.5409 7.19Z" fill="currentColor" />
		<!-- fill="url(#paint0_linear_3_64)" /> -->
	<path opacity="0.6"
		d="M12.5006 12.4214V22.0014C11.7506 22.0014 11.0006 21.8414 10.4306 21.5214L5.09064 18.5614C3.88064 17.8914 2.89062 16.2114 2.89062 14.8314V9.17141C2.89062 8.53141 3.11062 7.83141 3.46062 7.19141L12.5006 12.4214Z" fill="currentColor" />
		<!-- fill="url(#paint1_linear_3_64)" /> -->
	<path
		d="M22.11 9.17141V14.8314C22.11 16.2114 21.12 17.8914 19.91 18.5614L14.57 21.5214C14 21.8414 13.25 22.0014 12.5 22.0014V12.4214L21.54 7.19141C21.89 7.83141 22.11 8.53141 22.11 9.17141Z" fill="currentColor" />
		<!-- fill="url(#paint2_linear_3_64)" /> -->
</svg>