<svg width="25" height="24" viewBox="0 0 25 24" fill="none" xmlns="http://www.w3.org/2000/svg">
<path d="M17.5836 3.56V2C17.5836 1.59 17.2436 1.25 16.8336 1.25C16.4236 1.25 16.0836 1.59 16.0836 2V3.5H9.58359V2C9.58359 1.59 9.24359 1.25 8.83359 1.25C8.42359 1.25 8.08359 1.59 8.08359 2V3.56C5.38359 3.81 4.0736 5.42 3.8736 7.81C3.8536 8.1 4.0936 8.34 4.3736 8.34H21.2936C21.5836 8.34 21.8236 8.09 21.7936 7.81C21.5936 5.42 20.2836 3.81 17.5836 3.56Z" fill="currentColor" />
 <!-- fill="url(#paint0_linear_3_58)" fill-opacity="0.3"/> -->
<path opacity="0.4" d="M20.8334 9.83984C21.3834 9.83984 21.8334 10.2898 21.8334 10.8398V16.9998C21.8334 19.9998 20.3334 21.9998 16.8334 21.9998H8.83337C5.33337 21.9998 3.83337 19.9998 3.83337 16.9998V10.8398C3.83337 10.2898 4.28337 9.83984 4.83337 9.83984H20.8334Z" fill="currentColor" />
 <!-- fill="url(#paint1_linear_3_58)" fill-opacity="0.3"/> -->
<path d="M9.33337 14.9989C9.20337 14.9989 9.07337 14.9689 8.95337 14.9189C8.83337 14.8689 8.72338 14.7989 8.62338 14.7089C8.53338 14.6089 8.46336 14.4989 8.41336 14.3789C8.36336 14.2589 8.33337 14.1289 8.33337 13.9989C8.33337 13.8689 8.36336 13.7389 8.41336 13.6189C8.46336 13.4989 8.53338 13.3889 8.62338 13.2889C8.72338 13.1989 8.83337 13.1289 8.95337 13.0789C9.19337 12.9789 9.47337 12.9789 9.71337 13.0789C9.83337 13.1289 9.94336 13.1989 10.0434 13.2889C10.1334 13.3889 10.2034 13.4989 10.2534 13.6189C10.3034 13.7389 10.3334 13.8689 10.3334 13.9989C10.3334 14.1289 10.3034 14.2589 10.2534 14.3789C10.2034 14.4989 10.1334 14.6089 10.0434 14.7089C9.94336 14.7989 9.83337 14.8689 9.71337 14.9189C9.59337 14.9689 9.46337 14.9989 9.33337 14.9989Z" fill="currentColor" />
 <!-- fill="url(#paint2_linear_3_58)" fill-opacity="0.3"/> -->
<path d="M12.8334 14.9986C12.7034 14.9986 12.5734 14.9686 12.4534 14.9186C12.3334 14.8686 12.2234 14.7986 12.1234 14.7086C11.9434 14.5186 11.8334 14.2586 11.8334 13.9986C11.8334 13.7386 11.9434 13.4786 12.1234 13.2886C12.2234 13.1986 12.3334 13.1286 12.4534 13.0786C12.6934 12.9686 12.9734 12.9686 13.2134 13.0786C13.3334 13.1286 13.4434 13.1986 13.5434 13.2886C13.7234 13.4786 13.8334 13.7386 13.8334 13.9986C13.8334 14.2586 13.7234 14.5186 13.5434 14.7086C13.4434 14.7986 13.3334 14.8686 13.2134 14.9186C13.0934 14.9686 12.9634 14.9986 12.8334 14.9986Z" fill="currentColor" />
 <!-- fill="url(#paint3_linear_3_58)" fill-opacity="0.3"/> -->
<path d="M9.33337 18.4989C9.20337 18.4989 9.07337 18.4689 8.95337 18.4189C8.83337 18.3689 8.72338 18.2989 8.62338 18.2089C8.44338 18.0189 8.33337 17.7589 8.33337 17.4989C8.33337 17.2389 8.44338 16.9789 8.62338 16.7889C8.72338 16.6989 8.83337 16.6289 8.95337 16.5789C9.19337 16.4789 9.47337 16.4789 9.71337 16.5789C9.83337 16.6289 9.94336 16.6989 10.0434 16.7889C10.2234 16.9789 10.3334 17.2389 10.3334 17.4989C10.3334 17.7589 10.2234 18.0189 10.0434 18.2089C9.94336 18.2989 9.83337 18.3689 9.71337 18.4189C9.59337 18.4689 9.46337 18.4989 9.33337 18.4989Z" fill="currentColor" />
 <!-- fill="url(#paint4_linear_3_58)" fill-opacity="0.3"/> -->
<defs>
<linearGradient id="paint0_linear_3_58" x1="16.2308" y1="-0.274631" x2="16.5941" y2="10.2279" gradientUnits="userSpaceOnUse">
<stop stop-color="#537FE7"/>
<stop offset="1" stop-color="#2A66F2"/>
</linearGradient>
<linearGradient id="paint1_linear_3_58" x1="16.2444" y1="7.22497" x2="17.3062" y2="25.1966" gradientUnits="userSpaceOnUse">
<stop stop-color="#537FE7"/>
<stop offset="1" stop-color="#2A66F2"/>
</linearGradient>
<linearGradient id="paint2_linear_3_58" x1="9.71237" y1="12.5749" x2="9.96855" y2="15.5113" gradientUnits="userSpaceOnUse">
<stop stop-color="#537FE7"/>
<stop offset="1" stop-color="#2A66F2"/>
</linearGradient>
<linearGradient id="paint3_linear_3_58" x1="13.2124" y1="12.5655" x2="13.4705" y2="15.5128" gradientUnits="userSpaceOnUse">
<stop stop-color="#537FE7"/>
<stop offset="1" stop-color="#2A66F2"/>
</linearGradient>
<linearGradient id="paint4_linear_3_58" x1="9.71237" y1="16.0749" x2="9.96855" y2="19.0113" gradientUnits="userSpaceOnUse">
<stop stop-color="#537FE7"/>
<stop offset="1" stop-color="#2A66F2"/>
</linearGradient>
</defs>
</svg>
