<svg width="14" height="14" viewBox="0 0 14 14" fill="none" xmlns="http://www.w3.org/2000/svg">
<path d="M9.04749 1.64978H4.95249C3.49999 1.64978 3.17916 2.37312 2.99249 3.25979L2.33333 6.4156H11.6667L11.0075 3.25979C10.8208 2.37312 10.5 1.64978 9.04749 1.64978Z" stroke="#36373B" stroke-width="0.875" stroke-linecap="round" stroke-linejoin="round"/>
<path d="M1.49845 8.00913C1.58011 7.13413 1.74928 6.41663 3.27762 6.41663H10.721C12.2493 6.41663 12.4185 7.13413 12.5001 8.00913L12.8268 11.5616C12.891 12.2441 12.3426 12.8333 11.6426 12.8333H10.546C9.91597 12.8333 9.82847 12.565 9.71764 12.2325L9.60097 11.8825C9.43764 11.4041 9.33264 11.0833 8.49264 11.0833H5.50595C4.66595 11.0833 4.54345 11.445 4.39762 11.8825L4.28095 12.2325C4.17011 12.565 4.08261 12.8333 3.45261 12.8333H2.35595C1.65595 12.8333 1.10762 12.2441 1.17178 11.5616L1.28262 10.36" stroke="#36373B" stroke-width="0.875" stroke-linecap="round" stroke-linejoin="round"/>
<path d="M2.33333 4.66663H1.75" stroke="#36373B" stroke-width="0.875" stroke-linecap="round" stroke-linejoin="round"/>
<path d="M12.25 4.66663H11.6667" stroke="#36373B" stroke-width="0.875" stroke-linecap="round" stroke-linejoin="round"/>
<path d="M7 1.75V2.91667" stroke="#36373B" stroke-width="0.875" stroke-linecap="round" stroke-linejoin="round"/>
<path d="M6.125 2.91663H7.875" stroke="#36373B" stroke-width="0.875" stroke-linecap="round" stroke-linejoin="round"/>
<path d="M3.5 8.75H5.25" stroke="#36373B" stroke-width="0.875" stroke-linecap="round" stroke-linejoin="round"/>
<path d="M8.75 8.75H10.5" stroke="#36373B" stroke-width="0.875" stroke-linecap="round" stroke-linejoin="round"/>
</svg>
