<svg width="20" height="20" viewBox="0 0 20 20" fill="none" xmlns="http://www.w3.org/2000/svg">
	<path opacity="0.4"
		d="M12.9 2.5H6.26666C3.39166 2.5 1.66666 4.21667 1.66666 7.1V13.725C1.66666 16.6167 3.39166 18.3333 6.26666 18.3333H12.8917C15.775 18.3333 17.4917 16.6167 17.4917 13.7333V7.1C17.5 4.21667 15.775 2.5 12.9 2.5Z"
		fill="currentColor" />
	<path
		d="M17.5162 2.48193C16.0246 0.981925 14.5662 0.948592 13.0329 2.48193L12.0912 3.41526C12.0079 3.49859 11.9829 3.61526 12.0162 3.72359C12.5996 5.76526 14.2329 7.39859 16.2746 7.98192C16.2996 7.99026 16.3412 7.99026 16.3662 7.99026C16.4496 7.99026 16.5329 7.95692 16.5912 7.89859L17.5162 6.96526C18.2746 6.20693 18.6496 5.48193 18.6496 4.74026C18.6496 3.99026 18.2746 3.24859 17.5162 2.48193Z"
		fill="currentColor" />
	<path
		d="M14.8826 8.68316C14.6576 8.57483 14.4409 8.46649 14.2409 8.34149C14.0743 8.24153 13.9076 8.13319 13.7493 8.01653C13.6159 7.93319 13.4659 7.80819 13.3159 7.68319C13.2993 7.67486 13.2493 7.63319 13.1826 7.56653C12.9243 7.35819 12.6493 7.07486 12.3909 6.76653C12.3743 6.74986 12.3243 6.69986 12.2826 6.62486C12.1993 6.53319 12.0743 6.37486 11.9659 6.19986C11.8743 6.08319 11.7659 5.91653 11.6659 5.74153C11.5409 5.53319 11.4326 5.32486 11.3326 5.10819C11.2243 4.87486 11.1409 4.65819 11.0659 4.44986L6.5826 8.93316C6.29094 9.22483 6.0076 9.77483 5.94927 10.1832L5.59094 12.6665C5.51594 13.1915 5.6576 13.6832 5.9826 14.0082C6.2576 14.2832 6.6326 14.4248 7.04927 14.4248C7.14094 14.4248 7.2326 14.4165 7.32427 14.4082L9.79925 14.0582C10.2076 13.9998 10.7576 13.7248 11.0493 13.4248L15.5326 8.94149C15.3243 8.87483 15.1159 8.78316 14.8826 8.68316Z"
		fill="currentColor" />
</svg>