<svg width="17" height="18" viewBox="0 0 17 18" fill="none" xmlns="http://www.w3.org/2000/svg">
	<g clip-path="url(#clip0_25_632)">
		<path
			d="M8.71854 16.4499C4.63804 16.4499 1.32135 13.1332 1.32135 9.05271C1.32135 4.97221 4.63804 1.65552 8.71854 1.65552C12.799 1.65552 16.1157 4.97221 16.1157 9.05271C16.1157 13.1332 12.799 16.4499 8.71854 16.4499ZM8.71854 2.68768C5.20918 2.68768 2.35352 5.54334 2.35352 9.05271C2.35352 12.5621 5.20918 15.4177 8.71854 15.4177C12.2279 15.4177 15.0836 12.5621 15.0836 9.05271C15.0836 5.54334 12.2279 2.68768 8.71854 2.68768Z"
			fill="currentColor" />
		<path
			d="M8.71818 13.3539C8.57368 13.3539 8.43605 13.3332 8.31907 13.292C6.83962 12.7896 4.49316 10.9868 4.49316 8.30315C4.49316 6.87188 5.64919 5.70898 7.07358 5.70898C7.69289 5.70898 8.26403 5.9223 8.72506 6.30764C9.18609 5.9223 9.76411 5.70898 10.3696 5.70898C11.794 5.70898 12.9501 6.87188 12.9501 8.30315C12.9501 10.9799 10.6036 12.7828 9.11728 13.292C9.0003 13.3332 8.8558 13.3539 8.71818 13.3539ZM7.0667 6.74802C6.21344 6.74802 5.51845 7.4499 5.51845 8.31003C5.51845 10.7115 7.8374 12.0465 8.64937 12.3217C8.67689 12.3286 8.7457 12.3286 8.77323 12.3217C9.5852 12.0465 11.9041 10.7115 11.9041 8.31003C11.9041 7.4499 11.2091 6.74802 10.3559 6.74802C9.8742 6.74802 9.41317 6.98198 9.12416 7.37421C8.93149 7.63569 8.4911 7.63569 8.29843 7.37421C8.00942 6.9751 7.56215 6.74802 7.0667 6.74802Z"
			fill="currentColor" />
	</g>
	<defs>
		<clipPath id="clip0_25_632">
			<rect width="16.5147" height="16.5147" fill="white" transform="translate(0.461243 0.79541)" />
		</clipPath>
	</defs>
</svg>