<svg width="20" height="20" viewBox="0 0 20 20" fill="none" xmlns="http://www.w3.org/2000/svg">
	<path opacity="0.4"
		d="M17.1843 7.04168C16.3093 3.19168 12.9509 1.45834 10.0009 1.45834C10.0009 1.45834 10.0009 1.45834 9.9926 1.45834C7.0509 1.45834 3.68424 3.18334 2.80924 7.03334C1.83424 11.3333 4.46757 14.975 6.8509 17.2667C7.73424 18.1167 8.86759 18.5417 10.0009 18.5417C11.1343 18.5417 12.2676 18.1167 13.1426 17.2667C15.5259 14.975 18.1593 11.3417 17.1843 7.04168Z"
		fill="currentColor" />
	<path
		d="M10.0013 11.2168C11.4511 11.2168 12.6263 10.0416 12.6263 8.59183C12.6263 7.14205 11.4511 5.9668 10.0013 5.9668C8.5516 5.9668 7.37631 7.14205 7.37631 8.59183C7.37631 10.0416 8.5516 11.2168 10.0013 11.2168Z"
		fill="currentColor" />
</svg>