<svg width="16" height="16" viewBox="0 0 16 16" fill="none" xmlns="http://www.w3.org/2000/svg">
	<path
		d="M11.2 1.33334H9.46667C7.33333 1.33334 6 2.66668 6 4.80001V7.50001H10.1667C10.44 7.50001 10.6667 7.72668 10.6667 8.00001C10.6667 8.27334 10.44 8.50001 10.1667 8.50001H6V11.2C6 13.3333 7.33333 14.6667 9.46667 14.6667H11.1933C13.3267 14.6667 14.66 13.3333 14.66 11.2V4.80001C14.6667 2.66668 13.3333 1.33334 11.2 1.33334Z"
		fill="currentColor" />
	<path
		d="M3.04094 7.49986L4.42094 6.11989C4.52094 6.01989 4.5676 5.89322 4.5676 5.76655C4.5676 5.63989 4.52094 5.50655 4.42094 5.41322C4.2276 5.21989 3.9076 5.21989 3.71427 5.41322L1.48094 7.64653C1.2876 7.83986 1.2876 8.15986 1.48094 8.35319L3.71427 10.5865C3.9076 10.7799 4.2276 10.7799 4.42094 10.5865C4.61427 10.3932 4.61427 10.0732 4.42094 9.87986L3.04094 8.49986H6.00094V7.49986H3.04094Z"
		fill="currentColor" />
</svg>