<svg width="18" height="18" viewBox="0 0 18 18" fill="none" xmlns="http://www.w3.org/2000/svg">
	<path
		d="M6.40772 13.8695H6.06366C3.31122 13.8695 1.935 13.1814 1.935 9.74085V6.3003C1.935 3.54785 3.31122 2.17163 6.06366 2.17163H11.5685C14.321 2.17163 15.6972 3.54785 15.6972 6.3003V9.74085C15.6972 12.4933 14.321 13.8695 11.5685 13.8695H11.2245C11.0112 13.8695 10.8047 13.9727 10.674 14.1448L9.64184 15.521C9.18769 16.1265 8.44453 16.1265 7.99037 15.521L6.95821 14.1448C6.84811 13.9934 6.59351 13.8695 6.40772 13.8695Z"
		stroke="currentColor" stroke-width="1.03217" stroke-miterlimit="10" stroke-linecap="round"
		stroke-linejoin="round" />
	<path opacity="0.4" d="M5.37555 6.30029H12.2567" stroke="currentColor" stroke-width="1.03217"
		stroke-linecap="round" stroke-linejoin="round" />
	<path opacity="0.4" d="M5.37555 9.74084H9.50421" stroke="currentColor" stroke-width="1.03217"
		stroke-linecap="round" stroke-linejoin="round" />
</svg>