<svg width="10" height="10" viewBox="0 0 10 10" fill="none" xmlns="http://www.w3.org/2000/svg">
<g clip-path="url(#clip0_57_622)">
<path opacity="0.4" d="M6.86196 1.44736H3.66816C2.27541 1.44736 1.44739 2.27538 1.44739 3.66432V6.85811C1.44739 8.24705 2.27541 9.07507 3.66435 9.07507H6.85814C8.24708 9.07507 9.0751 8.24705 9.0751 6.85811V3.66432C9.07892 2.27538 8.2509 1.44736 6.86196 1.44736Z" fill="#36373B"/>
<path d="M7.30496 4.13778L6.41207 7.01488C6.19839 7.6979 5.24063 7.70935 5.0155 7.03014L4.74844 6.24028C4.67594 6.02278 4.50419 5.84725 4.28671 5.77857L3.49303 5.51147C2.81764 5.28634 2.82909 4.32094 3.51211 4.11488L6.38922 3.21818C6.95395 3.04647 7.4843 3.57686 7.30496 4.13778Z" fill="#36373B"/>
</g>
<defs>
<clipPath id="clip0_57_622">
<rect width="9.15784" height="9.15784" fill="white" transform="translate(0.684265 0.684204)"/>
</clipPath>
</defs>
</svg>
