<svg width="12" height="13" viewBox="0 0 12 13" fill="none" xmlns="http://www.w3.org/2000/svg">
<path d="M7.69475 3.10563L8.39975 4.51563C8.49475 4.71063 8.74975 4.89563 8.96475 4.93563L10.2398 5.14563C11.0548 5.28063 11.2448 5.87065 10.6598 6.46065L9.66475 7.45565C9.49975 7.62065 9.40475 7.94565 9.45975 8.18065L9.74475 9.41065C9.96975 10.3807 9.44975 10.7607 8.59475 10.2507L7.39975 9.54065C7.18475 9.41065 6.82475 9.41065 6.60975 9.54065L5.41475 10.2507C4.55973 10.7557 4.03973 10.3807 4.26473 9.41065L4.54973 8.18065C4.59473 7.94065 4.49973 7.61565 4.33473 7.45065L3.33973 6.45565C2.75473 5.87065 2.94473 5.28063 3.75973 5.14063L5.03475 4.93063C5.24975 4.89563 5.50475 4.70563 5.59975 4.51063L6.30475 3.10063C6.68975 2.34063 7.30975 2.34063 7.69475 3.10563Z" fill="#FFCC00"/>
<path d="M4 3.375H1C0.795 3.375 0.625 3.205 0.625 3C0.625 2.795 0.795 2.625 1 2.625H4C4.205 2.625 4.375 2.795 4.375 3C4.375 3.205 4.205 3.375 4 3.375Z" fill="#FFCC00"/>
<path d="M2.5 10.375H1C0.795 10.375 0.625 10.205 0.625 10C0.625 9.795 0.795 9.625 1 9.625H2.5C2.705 9.625 2.875 9.795 2.875 10C2.875 10.205 2.705 10.375 2.5 10.375Z" fill="#FFCC00"/>
<path d="M1.5 6.875H1C0.795 6.875 0.625 6.705 0.625 6.5C0.625 6.295 0.795 6.125 1 6.125H1.5C1.705 6.125 1.875 6.295 1.875 6.5C1.875 6.705 1.705 6.875 1.5 6.875Z" fill="#FFCC00"/>
</svg>
